# xmcd
#
# Track frame offsets:
#	150
#	14205
#	33412
#	51147
#	65704
#	83573
#	101029
#	115574
#	127226
#	145294
#	157582
#	171499
#	188217
#	202659
#	218607
#	236225
#	257282
#	275434
#	291583
#
# Disc length: 4074 seconds
#
# Revision: 2
# Processed by: cddbd v1.5.2PL0 Copyright (c) Steve Scherf et al.
# Submitted via: audiograbber 1.83.01
#
DISCID=180fe813
DTITLE=Various Artist - Bush Kids To Beach - Rural Aid Appeal Volume 16
DYEAR=2001
DGENRE=Country
TTITLE0=Gina Jeffreys - Quilt Of Dreams
TTITLE1=James Blundell - Blue Heeler
TTITLE2=Tamara Stewart - For The Sake Of Ourselves
TTITLE3=Adam Harvey - She's Gone
TTITLE4=Magnificent 7 - Beccy
TTITLE5=Glenn Shorrock - At The Mercy Of The Sea
TTITLE6=Pru Clearwater - Kinda Exactly Like You
TTITLE7=Graeme Jensen - Cowpat Boogie
TTITLE8=Fiddle Me Please - Trespassers May Be Prosecuted
TTITLE9=Bluegrass Parkway - Cripple Creek
TTITLE10=Chris Callaghan - Listen To The Rain
TTITLE11=Kerry Kennedy and Double Barrel - Western Plains
TTITLE12=Luella Widt with Blue Heeler - Tears From A Distance
TTITLE13=Neil Duddy - Bull Ride
TTITLE14=Southbound - Make A Move
TTITLE15=Carter and Carter - A Little Place Called Love
TTITLE16=Jade Hurley - Too Many Sad Songs On My Mind
TTITLE17=Beccy Cole - Somebody Like You
TTITLE18=Adam Brand - Little Sisters
EXTD=
EXTT0=
EXTT1=
EXTT2=
EXTT3=
EXTT4=
EXTT5=
EXTT6=
EXTT7=
EXTT8=
EXTT9=
EXTT10=
EXTT11=
EXTT12=
EXTT13=
EXTT14=
EXTT15=
EXTT16=
EXTT17=
EXTT18=
PLAYORDER=
